<svg width="60" height="60" viewBox="0 0 60 60" fill="none" xmlns="http://www.w3.org/2000/svg">
<rect width="60" height="60" fill="#022830"/>
<path d="M20.9844 14H40.0156C40.5488 14 41 14.4575 41 14.9982V18.3255C41 18.8662 40.5488 19.3237 40.0156 19.3237H20.9844C20.4512 19.3237 20 18.8662 20 18.3255V14.9982C20 14.4575 20.4512 14 20.9844 14Z" fill="#4CFCA7"/>
<path d="M20.9844 24.6471H40.0156C40.5488 24.6471 41 25.1047 41 25.6453V28.9727C41 29.5133 40.5488 29.9708 40.0156 29.9708H20.9844C20.4512 29.9708 20 29.5133 20 28.9727V25.6453C20 25.1047 20.4512 24.6471 20.9844 24.6471Z" fill="#4CFCA7"/>
<path d="M20.9844 35.2945C20.4512 35.2945 20 35.752 20 36.2927V44.9437C20 45.4844 20.4512 45.9419 20.9844 45.9419H24.2656C24.7988 45.9419 25.25 45.4844 25.25 44.9437V36.2927C25.25 35.752 24.7988 35.2945 24.2656 35.2945H20.9844Z" fill="#4CFCA7"/>
</svg>
