<svg id="svg" version="1.1" xmlns="http://www.w3.org/2000/svg" xmlns:xlink="http://www.w3.org/1999/xlink" width="400" height="539.6825396825396" viewBox="0, 0, 400,539.6825396825396"><g id="svgg"><path id="path0" d="M67.511 51.163 C 66.032 51.544,64.412 52.200,63.911 52.620 C 61.539 54.611,60.066 56.390,59.603 57.827 C 59.324 58.692,58.894 59.653,58.648 59.961 C 58.058 60.700,57.786 109.397,58.358 111.771 C 59.077 114.749,60.190 117.534,61.000 118.377 C 62.451 119.888,62.588 120.003,64.083 120.982 C 64.899 121.516,66.249 122.143,67.083 122.374 C 69.245 122.975,345.190 122.965,347.352 122.364 C 348.206 122.127,349.275 121.588,349.728 121.167 C 350.181 120.745,350.709 120.400,350.903 120.400 C 351.932 120.400,354.764 116.658,355.171 114.760 C 355.777 111.935,355.759 61.583,355.152 58.749 C 354.701 56.648,353.320 54.950,350.120 52.565 C 347.023 50.257,356.386 50.397,206.918 50.435 C 78.616 50.468,70.034 50.513,67.511 51.163 M68.207 200.389 C 68.075 200.603,67.216 201.003,66.298 201.278 C 63.630 202.077,60.257 205.614,59.124 208.800 L 58.200 211.400 58.200 236.600 L 58.200 261.800 59.182 264.600 C 59.906 266.665,60.589 267.788,61.782 268.878 C 62.672 269.691,63.775 270.721,64.233 271.168 C 65.947 272.839,64.034 272.819,208.420 272.707 L 347.840 272.600 350.368 270.600 C 351.759 269.500,353.460 267.817,354.148 266.861 L 355.400 265.122 355.523 238.261 C 355.668 206.464,355.781 207.657,352.323 204.325 C 350.851 202.907,349.309 201.825,348.353 201.539 C 347.494 201.281,346.591 200.830,346.346 200.535 C 345.793 199.869,68.619 199.723,68.207 200.389 M67.606 350.823 C 66.840 351.250,65.824 351.600,65.350 351.600 C 63.030 351.600,59.449 356.643,58.391 361.400 C 57.911 363.558,57.908 484.979,58.388 486.800 C 59.610 491.440,60.294 492.520,64.069 495.775 C 66.412 497.797,69.234 498.000,94.764 497.993 C 123.458 497.985,123.200 498.018,127.382 493.759 C 131.460 489.607,131.243 493.772,131.113 422.000 L 131.000 359.400 129.800 357.453 C 129.140 356.382,128.015 354.891,127.300 354.139 C 126.585 353.388,126.000 352.619,126.000 352.431 C 126.000 352.243,125.372 351.971,124.606 351.827 C 123.839 351.684,122.444 351.217,121.506 350.792 C 118.852 349.587,69.772 349.616,67.606 350.823 " stroke="none" fill="#060606" fill-rule="evenodd"></path><path id="path1" d="M0.000 269.800 L 0.000 539.600 200.000 539.600 L 400.000 539.600 400.000 269.800 L 400.000 0.000 200.000 0.000 L 0.000 0.000 0.000 269.800 M347.058 49.266 C 347.466 49.633,348.453 50.053,349.251 50.201 C 351.415 50.603,355.215 54.410,356.769 57.734 L 358.000 60.367 357.999 86.883 C 357.997 111.857,357.954 113.470,357.266 114.600 C 356.864 115.260,356.404 116.326,356.243 116.970 C 355.828 118.627,351.412 122.708,349.406 123.289 C 348.523 123.545,347.358 124.035,346.818 124.377 C 345.254 125.368,68.446 125.325,67.342 124.334 C 66.934 123.967,65.916 123.541,65.080 123.386 C 62.938 122.988,59.607 120.008,57.869 116.936 C 57.003 115.405,57.000 115.304,56.890 87.226 L 56.779 59.053 57.839 56.959 C 59.275 54.119,62.528 50.910,64.578 50.311 C 65.470 50.050,66.740 49.514,67.400 49.119 C 69.196 48.045,345.860 48.190,347.058 49.266 M348.258 199.252 C 348.666 199.610,349.587 200.201,350.305 200.564 C 351.781 201.312,355.998 205.185,356.004 205.798 C 356.006 206.019,356.450 207.100,356.991 208.200 L 357.975 210.200 357.984 236.600 L 357.993 263.000 357.009 265.000 C 356.468 266.100,356.019 267.207,356.013 267.460 C 355.986 268.423,350.766 272.997,349.135 273.487 C 348.243 273.755,347.235 274.205,346.895 274.487 C 345.675 275.499,69.629 275.416,67.405 274.402 C 66.436 273.961,65.367 273.600,65.029 273.600 C 63.999 273.600,59.318 269.224,57.970 267.000 L 57.000 265.400 56.890 237.261 L 56.779 209.122 57.952 206.661 C 59.439 203.540,61.853 201.410,66.600 199.030 C 68.512 198.072,347.164 198.291,348.258 199.252 M124.518 349.774 C 126.594 350.826,127.898 352.008,130.652 355.331 C 131.120 355.897,131.628 357.025,131.781 357.838 C 131.933 358.652,132.316 359.711,132.632 360.192 C 133.124 360.944,133.189 369.929,133.092 424.234 L 132.979 487.400 132.060 489.772 C 130.691 493.308,127.269 497.344,125.200 497.863 C 124.650 498.001,123.532 498.448,122.716 498.857 C 121.315 499.558,119.764 499.600,94.950 499.600 L 68.668 499.600 65.550 498.356 C 62.475 497.129,58.400 493.709,58.400 492.355 C 58.400 492.085,58.085 491.515,57.700 491.090 C 57.039 490.359,57.000 486.600,57.000 424.058 L 57.000 357.800 57.966 356.200 C 62.629 348.473,62.660 348.467,96.200 348.542 L 122.200 348.600 124.518 349.774 " stroke="none" fill="#f3cbf3" fill-rule="evenodd"></path><path id="path2" d="M354.229 55.238 C 354.873 56.029,355.481 56.608,355.579 56.525 C 355.678 56.442,355.151 55.795,354.409 55.087 L 353.058 53.800 354.229 55.238 M57.388 86.800 C 57.388 100.770,57.439 106.485,57.500 99.500 C 57.561 92.515,57.561 81.085,57.500 74.100 C 57.439 67.115,57.388 72.830,57.388 86.800 M356.988 86.800 C 356.988 100.770,357.039 106.485,357.100 99.500 C 357.161 92.515,357.161 81.085,357.100 74.100 C 357.039 67.115,356.988 72.830,356.988 86.800 M138.532 124.300 C 176.335 124.356,238.075 124.356,275.732 124.300 C 313.390 124.244,282.460 124.198,207.000 124.198 C 131.540 124.198,100.730 124.244,138.532 124.300 M139.332 199.100 C 176.695 199.156,237.715 199.156,274.932 199.100 C 312.150 199.044,281.580 198.998,207.000 198.998 C 132.420 198.998,101.970 199.044,139.332 199.100 M57.388 236.800 C 57.388 250.770,57.439 256.485,57.500 249.500 C 57.561 242.515,57.561 231.085,57.500 224.100 C 57.439 217.115,57.388 222.830,57.388 236.800 M356.988 236.800 C 356.988 250.770,357.039 256.485,357.100 249.500 C 357.161 242.515,357.161 231.085,357.100 224.100 C 357.039 217.115,356.988 222.830,356.988 236.800 M60.600 269.200 C 61.459 270.080,62.252 270.800,62.362 270.800 C 62.472 270.800,61.859 270.080,61.000 269.200 C 60.141 268.320,59.348 267.600,59.238 267.600 C 59.128 267.600,59.741 268.320,60.600 269.200 M350.975 271.300 L 349.800 272.600 351.100 271.425 C 351.815 270.779,352.400 270.194,352.400 270.125 C 352.400 269.816,352.070 270.088,350.975 271.300 M69.305 349.487 C 69.914 349.579,70.814 349.577,71.305 349.482 C 71.797 349.387,71.300 349.311,70.200 349.314 C 69.100 349.317,68.697 349.395,69.305 349.487 M118.500 349.476 C 118.885 349.576,119.515 349.576,119.900 349.476 C 120.285 349.375,119.970 349.293,119.200 349.293 C 118.430 349.293,118.115 349.375,118.500 349.476 M57.395 423.800 C 57.395 458.560,57.442 472.721,57.500 455.269 C 57.558 437.816,57.558 409.376,57.500 392.069 C 57.442 374.761,57.395 389.040,57.395 423.800 M132.195 423.800 C 132.195 457.460,132.242 471.171,132.300 454.269 C 132.358 437.366,132.358 409.826,132.300 393.069 C 132.242 376.311,132.195 390.140,132.195 423.800 M82.529 499.100 C 89.310 499.161,100.290 499.161,106.929 499.100 C 113.568 499.038,108.020 498.988,94.600 498.988 C 81.180 498.988,75.748 499.038,82.529 499.100 " stroke="none" fill="#7c647c" fill-rule="evenodd"></path><path id="path3" d="M69.600 49.493 C 69.050 49.594,68.420 49.816,68.200 49.985 C 67.980 50.155,66.878 50.595,65.751 50.962 C 62.836 51.913,59.940 54.730,58.631 57.888 L 57.600 60.376 57.600 86.719 L 57.600 113.062 58.629 115.631 C 59.727 118.372,62.653 121.573,64.727 122.303 C 65.317 122.510,66.430 122.932,67.200 123.240 C 68.389 123.715,89.383 123.817,206.200 123.914 L 343.800 124.029 346.781 123.158 C 351.685 121.726,354.653 119.016,355.989 114.754 C 357.225 110.812,357.239 62.959,356.006 58.819 C 355.000 55.443,351.788 51.943,348.848 51.020 C 347.832 50.701,346.280 50.168,345.400 49.837 C 343.858 49.257,72.724 48.918,69.600 49.493 M346.318 51.065 C 349.134 51.764,350.134 52.360,352.971 55.029 C 354.338 56.315,354.798 57.099,355.152 58.749 C 355.759 61.583,355.777 111.935,355.171 114.760 C 354.764 116.658,351.932 120.400,350.903 120.400 C 350.709 120.400,350.181 120.745,349.728 121.167 C 349.275 121.588,348.206 122.127,347.352 122.364 C 345.190 122.965,69.245 122.975,67.083 122.374 C 66.249 122.143,64.899 121.516,64.083 120.982 C 62.588 120.003,62.451 119.888,61.000 118.377 C 60.190 117.534,59.077 114.749,58.358 111.771 C 57.786 109.397,58.058 60.700,58.648 59.961 C 58.894 59.653,59.324 58.692,59.603 57.827 C 60.066 56.390,61.539 54.611,63.911 52.620 C 66.638 50.332,57.386 50.474,206.918 50.435 C 333.155 50.403,343.841 50.451,346.318 51.065 M66.170 200.406 C 62.597 202.169,59.493 205.268,58.449 208.115 C 57.094 211.808,57.117 261.249,58.475 265.116 C 59.683 268.553,63.435 272.194,66.756 273.153 C 70.334 274.185,344.310 274.142,347.600 273.109 C 351.186 271.982,354.887 268.221,355.974 264.600 C 357.140 260.715,357.082 211.799,355.907 208.018 C 355.072 205.330,352.301 202.615,348.310 200.575 L 345.620 199.200 207.110 199.204 L 68.600 199.207 66.170 200.406 M346.346 200.535 C 346.591 200.830,347.494 201.281,348.353 201.539 C 349.309 201.825,350.851 202.907,352.323 204.325 C 355.781 207.657,355.668 206.464,355.523 238.261 L 355.400 265.122 354.148 266.861 C 353.460 267.817,351.759 269.500,350.368 270.600 L 347.840 272.600 208.420 272.707 C 64.034 272.819,65.947 272.839,64.233 271.168 C 63.775 270.721,62.672 269.691,61.782 268.878 C 60.589 267.788,59.906 266.665,59.182 264.600 L 58.200 261.800 58.200 236.600 L 58.200 211.400 59.124 208.800 C 60.257 205.614,63.630 202.077,66.298 201.278 C 67.216 201.003,68.075 200.603,68.207 200.389 C 68.619 199.723,345.793 199.869,346.346 200.535 M69.600 349.576 C 64.778 350.111,60.865 352.861,58.870 357.116 L 57.800 359.400 57.695 423.600 L 57.591 487.800 58.469 490.000 C 59.962 493.742,63.023 496.691,66.344 497.585 C 67.236 497.825,68.074 498.197,68.207 498.411 C 68.359 498.657,77.934 498.800,94.176 498.800 L 119.905 498.800 122.585 497.791 C 127.235 496.041,130.186 492.798,131.412 488.089 C 132.256 484.847,132.288 363.477,131.445 359.896 C 130.510 355.922,127.785 352.595,123.867 350.645 L 121.400 349.416 96.800 349.352 C 83.270 349.316,71.030 349.417,69.600 349.576 M121.506 350.792 C 122.444 351.217,123.839 351.684,124.606 351.827 C 125.372 351.971,126.000 352.243,126.000 352.431 C 126.000 352.619,126.585 353.388,127.300 354.139 C 128.015 354.891,129.140 356.382,129.800 357.453 L 131.000 359.400 131.113 422.000 C 131.243 493.772,131.460 489.607,127.382 493.759 C 123.200 498.018,123.458 497.985,94.764 497.993 C 69.234 498.000,66.412 497.797,64.069 495.775 C 60.294 492.520,59.610 491.440,58.388 486.800 C 57.908 484.979,57.911 363.558,58.391 361.400 C 59.449 356.643,63.030 351.600,65.350 351.600 C 65.824 351.600,66.840 351.250,67.606 350.823 C 69.772 349.616,118.852 349.587,121.506 350.792 " stroke="none" fill="#645464" fill-rule="evenodd"></path><path id="path4" d="M67.400 49.119 C 66.740 49.514,65.470 50.050,64.578 50.311 C 62.528 50.910,59.275 54.119,57.839 56.959 L 56.779 59.053 56.890 87.226 C 57.000 115.304,57.003 115.405,57.869 116.936 C 59.607 120.008,62.938 122.988,65.080 123.386 C 65.916 123.541,66.934 123.967,67.342 124.334 C 68.446 125.325,345.254 125.368,346.818 124.377 C 347.358 124.035,348.523 123.545,349.406 123.289 C 351.412 122.708,355.828 118.627,356.243 116.970 C 356.404 116.326,356.864 115.260,357.266 114.600 C 357.954 113.470,357.997 111.857,357.999 86.883 L 358.000 60.367 356.769 57.734 C 355.215 54.410,351.415 50.603,349.251 50.201 C 348.453 50.053,347.466 49.633,347.058 49.266 C 345.860 48.190,69.196 48.045,67.400 49.119 M346.536 49.971 C 347.466 50.395,348.695 50.859,349.267 51.002 C 349.838 51.146,351.478 52.374,352.911 53.732 C 357.302 57.893,357.203 57.130,357.201 86.879 L 357.200 111.559 356.190 114.754 C 354.857 118.976,351.942 121.821,347.462 123.273 L 344.600 124.200 207.495 124.302 C 71.185 124.403,70.377 124.399,68.109 123.602 C 66.854 123.161,65.595 122.800,65.310 122.800 C 63.617 122.800,59.650 118.697,58.323 115.574 L 57.400 113.400 57.400 86.600 L 57.400 59.800 58.444 57.600 C 59.948 54.432,62.518 52.045,66.046 50.540 L 69.000 49.280 206.922 49.240 C 342.293 49.201,344.875 49.214,346.536 49.971 M66.600 199.030 C 61.853 201.410,59.439 203.540,57.952 206.661 L 56.779 209.122 56.890 237.261 L 57.000 265.400 57.970 267.000 C 59.318 269.224,63.999 273.600,65.029 273.600 C 65.367 273.600,66.436 273.961,67.405 274.402 C 69.629 275.416,345.675 275.499,346.895 274.487 C 347.235 274.205,348.243 273.755,349.135 273.487 C 350.766 272.997,355.986 268.423,356.013 267.460 C 356.019 267.207,356.468 266.100,357.009 265.000 L 357.993 263.000 357.984 236.600 L 357.975 210.200 356.991 208.200 C 356.450 207.100,356.006 206.019,356.004 205.798 C 355.998 205.185,351.781 201.312,350.305 200.564 C 349.587 200.201,348.666 199.610,348.258 199.252 C 347.164 198.291,68.512 198.072,66.600 199.030 M348.600 200.491 C 352.852 202.754,355.289 205.495,356.347 209.200 C 357.620 213.663,357.682 259.986,356.420 263.936 C 354.942 268.563,351.782 271.904,347.658 273.201 C 343.936 274.371,70.549 274.462,66.725 273.295 C 63.308 272.252,59.714 268.910,58.400 265.554 L 57.400 263.000 57.400 236.594 L 57.400 210.188 58.538 207.510 C 60.321 203.316,65.090 199.724,69.600 199.178 C 70.810 199.032,133.450 198.932,208.800 198.956 L 345.800 199.000 348.600 200.491 M67.925 348.786 C 64.376 349.259,60.343 352.261,57.966 356.200 L 57.000 357.800 57.000 424.058 C 57.000 486.600,57.039 490.359,57.700 491.090 C 58.085 491.515,58.400 492.085,58.400 492.355 C 58.400 493.709,62.475 497.129,65.550 498.356 L 68.668 499.600 94.950 499.600 C 119.764 499.600,121.315 499.558,122.716 498.857 C 123.532 498.448,124.650 498.001,125.200 497.863 C 127.269 497.344,130.691 493.308,132.060 489.772 L 132.979 487.400 133.092 424.234 C 133.189 369.929,133.124 360.944,132.632 360.192 C 132.316 359.711,131.933 358.652,131.781 357.838 C 131.628 357.025,131.120 355.897,130.652 355.331 C 127.898 352.008,126.594 350.826,124.518 349.774 L 122.200 348.600 96.200 348.542 C 81.900 348.510,69.176 348.620,67.925 348.786 M124.165 350.560 C 127.534 352.212,130.289 355.490,131.527 359.319 C 132.436 362.131,132.575 484.778,131.673 488.200 C 130.518 492.580,127.261 496.221,123.000 497.898 L 120.200 499.000 94.600 499.000 C 71.493 499.000,68.864 498.935,67.600 498.331 C 66.830 497.963,65.718 497.541,65.128 497.395 C 63.189 496.911,59.432 493.096,58.365 490.526 L 57.400 488.200 57.288 424.800 L 57.177 361.400 58.045 358.680 C 59.399 354.437,62.993 351.010,67.600 349.568 C 68.150 349.396,80.570 349.288,95.200 349.327 L 121.800 349.400 124.165 350.560 " stroke="none" fill="#846c84" fill-rule="evenodd"></path></g></svg>